<?xml version="1.0" encoding="utf-8"?>
<!-- Generator: Adobe Illustrator 16.0.4, SVG Export Plug-In . SVG Version: 6.00 Build 0)  -->
<!DOCTYPE svg PUBLIC "-//W3C//DTD SVG 1.1//EN" "http://www.w3.org/Graphics/SVG/1.1/DTD/svg11.dtd">
<svg version="1.1" id="Layer_1" xmlns="http://www.w3.org/2000/svg" xmlns:xlink="http://www.w3.org/1999/xlink" x="0px" y="0px"
	 width="100px" height="99.854px" viewBox="0 0 100 99.854" enable-background="new 0 0 100 99.854" xml:space="preserve">
<path fill="#FFFFFF" d="M62.842,46.736c4.031-1.447,10.756-2.366,17.215,1.222c10.98,6.097,21.299-3.18,19.797-13.452
	C98.521,25.403,92.9,16.135,85.76,12.411c-10.678-5.565-18.762-2.468-25.018,4.323c-4.098,4.449-8.383,12.298-8.715,19.762
	c-0.156,3.514-4.236,3.329-5.218,0.591c-1.448-4.031-2.367-10.758,1.219-17.215C54.129,8.89,44.851-1.43,34.58,0.073
	c-9.104,1.334-18.371,6.953-22.096,14.096c-5.566,10.677-2.469,18.761,4.322,25.016c4.449,4.099,12.301,8.386,19.762,8.718
	c3.516,0.155,3.33,4.235,0.592,5.216c-4.033,1.449-10.76,2.369-17.216-1.219C8.963,45.799-1.357,55.078,0.146,65.349
	C1.479,74.454,7.1,83.72,14.242,87.444c10.678,5.566,18.762,2.469,25.016-4.322c4.099-4.448,8.385-12.299,8.716-19.761
	c0.157-3.517,4.235-3.329,5.218-0.597c1.447,4.034,2.367,10.761-1.221,17.22c-6.1,10.978,3.178,21.299,13.451,19.795
	c9.104-1.332,18.371-6.949,22.094-14.093c5.568-10.679,2.469-18.76-4.322-25.019c-4.447-4.095-12.301-8.383-19.76-8.713
	C59.918,51.798,60.104,47.719,62.842,46.736z M50,55.001c-2.801,0-5.071-2.271-5.071-5.072c0-2.801,2.271-5.071,5.071-5.071
	c2.803,0,5.072,2.271,5.072,5.071C55.072,52.73,52.803,55.001,50,55.001z"/>
</svg>
