<?xml version="1.0" encoding="utf-8"?>
<!-- Generator: Adobe Illustrator 16.0.4, SVG Export Plug-In . SVG Version: 6.00 Build 0)  -->
<!DOCTYPE svg PUBLIC "-//W3C//DTD SVG 1.1//EN" "http://www.w3.org/Graphics/SVG/1.1/DTD/svg11.dtd">
<svg version="1.1" id="Layer_1" xmlns="http://www.w3.org/2000/svg" xmlns:xlink="http://www.w3.org/1999/xlink" x="0px" y="0px"
	 width="60px" height="60px" viewBox="0 0 60 60" enable-background="new 0 0 60 60" xml:space="preserve">
<path fill="#FFFFFF" d="M23.408,30.995c-3.66,0.162-7.513,2.266-9.695,4.273c-3.333,3.072-4.853,7.038-2.121,12.276
	c1.827,3.507,6.373,6.263,10.841,6.916c5.039,0.739,9.592-4.326,6.6-9.714c-1.761-3.169-1.31-6.468-0.599-8.448
	c0.481-1.341,2.481-1.433,2.56,0.293c0.162,3.663,2.266,7.515,4.277,9.696c3.067,3.333,7.033,4.853,12.272,2.121
	c3.505-1.827,6.264-6.374,6.917-10.841c0.737-5.04-4.325-9.594-9.714-6.601c-3.169,1.762-6.468,1.309-8.447,0.6
	c-1.343-0.481-1.435-2.484,0.29-2.56c3.661-0.163,7.516-2.265,9.697-4.277c3.332-3.069,4.853-7.036,2.121-12.275
	c-1.827-3.505-6.376-6.261-10.841-6.916c-5.041-0.738-9.593,4.326-6.6,9.715c1.761,3.168,1.308,6.469,0.598,8.447
	c-0.479,1.344-2.483,1.435-2.56-0.29c-0.163-3.662-2.265-7.514-4.276-9.697c-3.07-3.332-7.036-4.852-12.275-2.121
	c-3.502,1.828-6.261,6.375-6.916,10.842c-0.737,5.04,4.325,9.591,9.714,6.6c3.167-1.759,6.469-1.309,8.445-0.599
	C25.042,28.917,25.133,30.919,23.408,30.995z M27.512,30.001c0-1.374,1.115-2.488,2.488-2.488c1.373,0,2.488,1.114,2.488,2.488
	c0,1.375-1.115,2.489-2.488,2.489C28.625,32.49,27.512,31.376,27.512,30.001z"/>
</svg>
