<?xml version="1.0" encoding="utf-8"?>
<!-- Generator: Adobe Illustrator 16.0.4, SVG Export Plug-In . SVG Version: 6.00 Build 0)  -->
<!DOCTYPE svg PUBLIC "-//W3C//DTD SVG 1.1//EN" "http://www.w3.org/Graphics/SVG/1.1/DTD/svg11.dtd">
<svg version="1.1" id="Layer_1" xmlns="http://www.w3.org/2000/svg" xmlns:xlink="http://www.w3.org/1999/xlink" x="0px" y="0px"
	 width="100px" height="99.854px" viewBox="0 0 100 99.854" enable-background="new 0 0 100 99.854" xml:space="preserve">
<path fill="#FFFFFF" d="M36.566,51.954c-7.459,0.33-15.313,4.617-19.76,8.713c-6.791,6.259-9.891,14.34-4.322,25.019
	c3.723,7.145,12.99,12.761,22.094,14.093c10.273,1.505,19.551-8.816,13.451-19.795c-3.588-6.459-2.668-13.186-1.221-17.22
	c0.982-2.731,5.061-2.92,5.217,0.597c0.332,7.463,4.617,15.313,8.717,19.762c6.254,6.791,14.338,9.888,25.016,4.321
	C92.9,83.72,98.521,74.454,99.854,65.349c1.504-10.271-8.816-19.55-19.797-13.449c-6.457,3.588-13.184,2.668-17.217,1.22
	c-2.738-0.981-2.924-5.062,0.592-5.217c7.461-0.332,15.313-4.618,19.762-8.718c6.791-6.255,9.889-14.339,4.322-25.016
	C83.791,7.026,74.523,1.407,65.42,0.073C55.148-1.43,45.871,8.89,51.973,19.872c3.586,6.457,2.666,13.184,1.219,17.215
	c-0.982,2.738-5.062,2.923-5.219-0.591c-0.332-7.464-4.617-15.313-8.715-19.763c-6.256-6.791-14.34-9.888-25.018-4.322
	C7.1,16.135,1.479,25.403,0.146,34.506c-1.502,10.271,8.816,19.549,19.797,13.452c6.459-3.588,13.184-2.669,17.215-1.223
	C39.896,47.719,40.082,51.798,36.566,51.954z M44.928,49.929c0-2.8,2.27-5.071,5.072-5.071c2.8,0,5.07,2.271,5.07,5.071
	s-2.27,5.072-5.07,5.072C47.197,55.001,44.928,52.73,44.928,49.929z"/>
</svg>
