<?xml version="1.0" encoding="utf-8"?>
<!-- Generator: Adobe Illustrator 16.0.4, SVG Export Plug-In . SVG Version: 6.00 Build 0)  -->
<!DOCTYPE svg PUBLIC "-//W3C//DTD SVG 1.1//EN" "http://www.w3.org/Graphics/SVG/1.1/DTD/svg11.dtd">
<svg version="1.1" id="Layer_1" xmlns="http://www.w3.org/2000/svg" xmlns:xlink="http://www.w3.org/1999/xlink" x="0px" y="0px"
	 width="48px" height="48px" viewBox="0 0 48 48" enable-background="new 0 0 48 48" xml:space="preserve">
<path fill="none" d="M0,0h48v48H0V0z"/>
<path fill="#848484" d="M24,16c-4.42,0-8,3.58-8,8s3.58,8,8,8s8-3.58,8-8S28.42,16,24,16z M41.88,22C40.96,13.66,34.34,7.04,26,6.12
	V2h-4v4.12C13.66,7.04,7.04,13.66,6.12,22H2v4h4.12C7.04,34.34,13.66,40.96,22,41.88V46h4v-4.12c8.34-0.92,14.96-7.54,15.88-15.88
	H46v-4H41.88z M24,38c-7.73,0-14-6.27-14-14c0-7.73,6.27-14,14-14c7.73,0,14,6.27,14,14C38,31.73,31.73,38,24,38z"/>
</svg>
