<?xml version="1.0" encoding="utf-8"?>
<!-- Generator: Adobe Illustrator 16.0.4, SVG Export Plug-In . SVG Version: 6.00 Build 0)  -->
<!DOCTYPE svg PUBLIC "-//W3C//DTD SVG 1.1//EN" "http://www.w3.org/Graphics/SVG/1.1/DTD/svg11.dtd">
<svg version="1.1" id="sun" xmlns="http://www.w3.org/2000/svg" xmlns:xlink="http://www.w3.org/1999/xlink" x="0px" y="0px" width="512px" height="512px" viewBox="0 0 512 512" xml:space="preserve">
                <path id="circle" fill="#DFBA54" d="M256,144c-61.75,0-112,50.25-112,112s50.25,112,112,112s112-50.25,112-112S317.75,144,256,144z M256,336
	c-44.188,0-80-35.812-80-80c0-44.188,35.812-80,80-80c44.188,0,80,35.812,80,80C336,300.188,300.188,336,256,336z"></path>
                <path id="rays" fill="#DFBA54" d="M256,112c8.833,0,16-7.167,16-16V64c0-8.833-7.167-16-16-16s-16,7.167-16,16v32
	C240,104.833,247.167,112,256,112z M256,400c-8.833,0-16,7.167-16,16v32c0,8.833,7.167,16,16,16s16-7.167,16-16v-32
	C272,407.167,264.833,400,256,400z M380.438,154.167l22.625-22.625c6.25-6.25,6.25-16.375,0-22.625s-16.375-6.25-22.625,0
	l-22.625,22.625c-6.25,6.25-6.25,16.375,0,22.625S374.188,160.417,380.438,154.167z M131.562,357.834l-22.625,22.625
	c-6.25,6.249-6.25,16.374,0,22.624s16.375,6.25,22.625,0l22.625-22.624c6.25-6.271,6.25-16.376,0-22.625
	C147.938,351.583,137.812,351.562,131.562,357.834z M112,256c0-8.833-7.167-16-16-16H64c-8.833,0-16,7.167-16,16s7.167,16,16,16h32
	C104.833,272,112,264.833,112,256z M448,240h-32c-8.833,0-16,7.167-16,16s7.167,16,16,16h32c8.833,0,16-7.167,16-16
	S456.833,240,448,240z M131.541,154.167c6.251,6.25,16.376,6.25,22.625,0c6.251-6.25,6.251-16.375,0-22.625l-22.625-22.625
	c-6.25-6.25-16.374-6.25-22.625,0c-6.25,6.25-6.25,16.375,0,22.625L131.541,154.167z M380.459,357.812
	c-6.271-6.25-16.376-6.25-22.625,0c-6.251,6.25-6.271,16.375,0,22.625l22.625,22.625c6.249,6.25,16.374,6.25,22.624,0
                                  s6.25-16.374,0-22.625L380.459,357.812z"></path>
                <desc>Sun</desc>
                <defs></defs>
                
            </svg>