<?xml version="1.0" encoding="utf-8"?>
<!-- Generator: Adobe Illustrator 16.0.4, SVG Export Plug-In . SVG Version: 6.00 Build 0)  -->
<!DOCTYPE svg PUBLIC "-//W3C//DTD SVG 1.1//EN" "http://www.w3.org/Graphics/SVG/1.1/DTD/svg11.dtd">
<svg version="1.1" id="Layer_1" xmlns="http://www.w3.org/2000/svg" xmlns:xlink="http://www.w3.org/1999/xlink" x="0px" y="0px"
	 width="45px" height="45px" viewBox="0 0 45 45" enable-background="new 0 0 45 45" xml:space="preserve">
<path fill="#2E5C96" d="M19,0.688c-9.4,0-17,7.6-17,17c0,9.4,7.6,17,17,17c3.354,0,6.461-0.984,9.094-2.656l12.281,12.281l4.25-4.25
	L32.5,27.969c2.18-2.858,3.5-6.402,3.5-10.281C36,8.288,28.4,0.688,19,0.688z M19,4.688c7.2,0,13,5.8,13,13s-5.8,13-13,13
	s-13-5.8-13-13S11.8,4.688,19,4.688z"/>
</svg>
