<?xml version="1.0" encoding="utf-8"?>
<!-- Generator: Adobe Illustrator 16.0.4, SVG Export Plug-In . SVG Version: 6.00 Build 0)  -->
<!DOCTYPE svg PUBLIC "-//W3C//DTD SVG 1.1//EN" "http://www.w3.org/Graphics/SVG/1.1/DTD/svg11.dtd">
<svg version="1.1" id="Layer_1" xmlns="http://www.w3.org/2000/svg" xmlns:xlink="http://www.w3.org/1999/xlink" x="0px" y="0px"
	 width="60px" height="35px" viewBox="0 0 60 35" enable-background="new 0 0 60 35" xml:space="preserve">
<path fill="none" stroke="#FFFFFF" stroke-width="3" stroke-miterlimit="10" d="M50.734,32.5c0.002,0,0.008-0.097,0.008-0.197
	c0-11.456-9.286-20.69-20.742-20.69c-11.455,0-20.742,9.209-20.742,20.665c0,0.1,0.006,0.223,0.007,0.223H50.734z"/>
<g>
	<g>
		<path fill="#FFFFFF" d="M1.875,34c18.5,0,37,0,55.5,0c1.935,0,1.935-3,0-3c-18.5,0-37,0-55.5,0C-0.06,31-0.06,34,1.875,34
			L1.875,34z"/>
	</g>
</g>
<g>
	<g>
		<path fill="#FFFFFF" d="M53.765,22.746c1.56-0.85,3.119-1.699,4.679-2.549c1.133-0.617,0.123-2.344-1.01-1.727
			c-1.56,0.85-3.119,1.699-4.679,2.549C51.622,21.637,52.632,23.363,53.765,22.746L53.765,22.746z"/>
	</g>
</g>
<g>
	<g>
		<path fill="#FFFFFF" d="M46.984,14.43c1.262-1.262,2.523-2.523,3.785-3.785c0.913-0.913-0.501-2.327-1.414-1.414
			c-1.262,1.262-2.523,2.523-3.785,3.785C44.657,13.929,46.071,15.343,46.984,14.43L46.984,14.43z"/>
	</g>
</g>
<g>
	<g>
		<path fill="#FFFFFF" d="M36.408,3.423c-0.453,1.537-0.906,3.074-1.358,4.611c-0.366,1.24,1.564,1.766,1.928,0.531
			c0.453-1.537,0.906-3.074,1.358-4.611C38.702,2.714,36.771,2.188,36.408,3.423L36.408,3.423z"/>
	</g>
</g>
<g>
	<g>
		<path fill="#FFFFFF" d="M7.128,21.02c-1.753-0.85-3.507-1.699-5.26-2.549c-1.155-0.56-2.17,1.164-1.01,1.727
			c1.753,0.85,3.507,1.699,5.26,2.549C7.274,23.306,8.289,21.582,7.128,21.02L7.128,21.02z"/>
	</g>
</g>
<g>
	<g>
		<path fill="#FFFFFF" d="M15.181,13.016c-1.418-1.262-2.837-2.523-4.256-3.785c-0.96-0.854-2.38,0.555-1.414,1.414
			c1.418,1.262,2.837,2.523,4.256,3.785C14.727,15.284,16.147,13.875,15.181,13.016L15.181,13.016z"/>
	</g>
</g>
<g>
	<g>
		<path fill="#FFFFFF" d="M23.522,3.954c0.509,1.537,1.018,3.074,1.527,4.611c0.403,1.218,2.335,0.696,1.929-0.531
			c-0.509-1.537-1.018-3.074-1.527-4.611C25.047,2.205,23.115,2.727,23.522,3.954L23.522,3.954z"/>
	</g>
</g>
</svg>
